<?xml version="1.0" encoding="UTF-8" standalone="no"?>
<!-- Created with Inkscape (http://www.inkscape.org/) -->

<svg
   width="50mm"
   height="50mm"
   viewBox="0 0 50 50"
   version="1.1"
   id="svg5"
   inkscape:version="1.4.4 (1:1.4.4+202605061432+dcaf3e7d9e)"
   sodipodi:docname="8.svg"
   xmlns:inkscape="http://www.inkscape.org/namespaces/inkscape"
   xmlns:sodipodi="http://sodipodi.sourceforge.net/DTD/sodipodi-0.dtd"
   xmlns="http://www.w3.org/2000/svg"
   xmlns:svg="http://www.w3.org/2000/svg">
  <sodipodi:namedview
     id="namedview7"
     pagecolor="#ffffff"
     bordercolor="#666666"
     borderopacity="1.0"
     inkscape:pageshadow="2"
     inkscape:pageopacity="0.0"
     inkscape:pagecheckerboard="0"
     inkscape:document-units="mm"
     showgrid="false"
     inkscape:zoom="0.43024095"
     inkscape:cx="-108.07897"
     inkscape:cy="424.18092"
     inkscape:window-width="1850"
     inkscape:window-height="1016"
     inkscape:window-x="70"
     inkscape:window-y="27"
     inkscape:window-maximized="1"
     inkscape:current-layer="layer1"
     inkscape:showpageshadow="2"
     inkscape:deskcolor="#d1d1d1" />
  <defs
     id="defs2" />
  <g
     inkscape:label="Camada 1"
     inkscape:groupmode="layer"
     id="layer1">
    <path
       d="m 30.78479,20.208532 c 4.265579,-2.746332 10.517867,-5.551097 10.517867,-7.537805 0,-1.051787 -0.876489,-2.337304 -2.512602,-4.3240126 C 38.088864,7.528658 38.030432,6.3600061 37.387673,5.6003823 36.277454,4.3732977 35.167234,2.5618872 33.764852,2.445022 31.01852,2.0359938 28.272188,1.6853982 25.525856,1.6853982 c -8.180564,0 -16.8285886,3.5059559 -16.8285886,10.6347328 0,4.674608 3.9149846,8.531159 7.1287766,12.446143 -0.934921,3.681254 -1.986708,6.369154 -1.986708,10.634733 0,8.063699 4.148715,12.913605 11.569655,12.913605 5.025203,0 10.693165,-3.447524 10.693165,-9.466081 0,-5.317367 -4.791473,-9.875109 -9.115485,-15.426206 1.636112,-1.34395 2.629467,-2.454169 3.798119,-3.213793 z M 20.734383,18.280256 C 19.332,16.527278 17.988051,14.832733 16.468803,12.846024 l -0.409028,-0.46746 c 3.622821,-2.6294672 7.128777,-3.4475236 11.394356,-3.4475236 1.519248,0 3.155361,0.1168652 4.966771,0.292163 z m 7.596237,19.925516 c -1.051786,1.752978 -2.103573,2.395737 -3.15536,2.395737 -1.986708,0 -3.798119,-1.986709 -3.798119,-4.090282 0,-1.460815 0.584326,-3.330658 1.752978,-5.667962 2.045141,2.746332 3.681254,5.258934 5.200501,7.362507 z"
       id="text1"
       style="font-size:58.4326px;line-height:1.25;font-family:'Because We Learn';-inkscape-font-specification:'Because We Learn, Normal';font-variant-ligatures:none;text-align:center;letter-spacing:0px;word-spacing:0px;text-anchor:middle;stroke-width:0.702251"
       aria-label="8" />
  </g>
</svg>
