<?xml version="1.0" encoding="UTF-8" standalone="no"?>
<!-- Created with Inkscape (http://www.inkscape.org/) -->

<svg
   id="svg3605"
   viewBox="0 0 98.578545 119.00108"
   version="1.0"
   width="98.578545"
   height="119.00108"
   xmlns="http://www.w3.org/2000/svg"
   xmlns:svg="http://www.w3.org/2000/svg"
   xmlns:rdf="http://www.w3.org/1999/02/22-rdf-syntax-ns#"
   xmlns:cc="http://creativecommons.org/ns#"
   xmlns:dc="http://purl.org/dc/elements/1.1/">
  <defs
     id="defs57" />
  <g
     id="layer1"
     transform="translate(-16.179011,-5.3394141)">
    <g
       id="g4785"
       transform="translate(466,7)">
      <path
         id="path4637"
         style="fill:#000000;fill-rule:evenodd"
         d="m -403.94,6.1085 c -0.11,0.6438 -0.11,5.5325 -0.03,10.272 -16.88,0.422 -33.59,7.612 -41.12,24.15 -4.14,9.216 -5.13,19.549 -4.6,29.638 2.39,11.003 5.31,22.594 10.9,32.302 8.2,12.12 22.48,14.26 35.96,14.87 11.64,-0.41 23.23,-3.37 33.68,-8.81 8.23,-4.12 12.94,-11.714 16.01,-20.549 2.2,-11.553 2.84,-24.341 0,-35.876 -4.73,-7.1 -6.93,-16.813 -12.61,-23.12 -9.05,-7.288 -20.89,-13.778 -32.53,-10.245 l 0.29,-4.097 4.54,-15.797 c -5.07,0.74071 -6.69,-4.4028 -10.49,7.2625 z" />
      <path
         id="path4639"
         style="fill:#ff9000;fill-rule:evenodd"
         d="m -425.12,27.367 c -8.54,5.544 -20.03,20.633 -20.24,30.943 -0.33,16.837 4.36,39.052 19.13,47.94 13.05,5.92 21.86,7.01 35.67,4.58 13.6,-0.78 22.15,-7.9 27.52,-14.702 5.37,-6.801 7.17,-28.681 7.18,-31.188 0.1,-14.002 -8.24,-28.501 -18.89,-33.955 -6.78,-3.467 -15.97,-7.448 -23.7,-7.563 -1.87,0.567 -0.3,13.374 -1.41,13.17 -1.12,-0.205 -5.56,3.294 -6.21,0.217 -0.65,-3.076 3.2,-12.893 1.08,-12.396 -8.5,1.283 -12,0.118 -20.13,2.954 z" />
      <path
         id="path4641"
         style="fill:#ffffff;fill-opacity:0.34311;fill-rule:evenodd"
         d="m -371.53,37.84 c 1.59,1.38 4.03,2.939 5.2,4.735 1.37,2.107 1.92,5.611 2.72,8.024 0.43,1.296 1.98,3.097 1.4,4.327 -0.8,1.729 -3.95,1.805 -5.76,2.029 -1.46,0.181 -3.48,-0.003 -4.88,-0.458 -1.65,-0.533 -3.83,-1.63 -5.03,-2.94 -1.54,-1.684 -2.72,-4.716 -3.37,-6.957 -0.37,-1.253 -0.54,-3.027 -0.52,-4.339 0.03,-1.515 0.08,-3.667 0.8,-4.979 0.4,-0.736 1.36,-1.392 2.06,-1.806 0.87,-0.514 2.16,-1.303 3.14,-1.128 1.59,0.285 2.99,2.412 4.24,3.492 z" />
      <path
         id="path4643"
         style="fill:#ffffff;fill-rule:evenodd"
         d="m -369.73,41.782 c 0.77,1.115 2.04,2.481 2.51,3.773 0.52,1.431 0.42,3.551 0.58,5.075 0.09,0.816 0.81,2.119 0.28,2.723 -0.76,0.872 -2.64,0.144 -3.74,-0.112 -0.92,-0.215 -2.1,-0.759 -2.88,-1.314 -0.92,-0.652 -2.09,-1.715 -2.65,-2.731 -0.67,-1.238 -1.01,-3.192 -1.11,-4.618 -0.05,-0.764 0.07,-1.799 0.26,-2.538 0.22,-0.831 0.54,-2.028 1.14,-2.611 0.34,-0.338 1.01,-0.484 1.47,-0.565 0.61,-0.104 1.5,-0.243 2.05,0.05 0.91,0.491 1.48,1.994 2.09,2.868 z" />
      <path
         id="path4645"
         style="fill:#000000;fill-opacity:0.25517;fill-rule:evenodd"
         d="m -431.65,89.455 -16.31,-17.271 1.05,8.754 1.8,10.088 6.71,9.434 10.9,9.66 14.46,2.71 25.48,-0.55 23.32,-6.58 c 0,0 7.62,-17.267 7.18,-18.757 -12.04,11.186 -21.43,13.837 -28.76,11.125 l -11.65,-1.573 -19.28,-2.142 z" />
      <path
         id="path4647"
         style="fill:#000000;fill-opacity:0.25517;fill-rule:evenodd"
         d="m -410.33,39.579 c -2.31,-1.287 -4.03,-7.667 -6.31,-6.321 -0.91,0.541 0.48,2.532 0.72,3.609 0.28,1.245 0.49,2.98 1.04,4.124 0.58,1.225 1.76,2.611 2.68,3.577 1.12,1.177 2.66,2.844 4.14,3.436 1.42,0.572 3.55,0.417 5.07,0.322 2.65,-0.166 6.19,-0.776 8.71,-1.66 2.46,-0.86 6.14,-1.901 7.73,-4.062 1.47,-2.001 2.04,-8.68 1.7,-8.26 -3.55,4.342 -6.7,6.276 -9.41,6.273 0,0 -2.84,-0.022 -4.06,-0.006 -2.01,0.026 -4.7,0.383 -6.7,0.184 -1.62,-0.161 -3.87,-0.41 -5.31,-1.216 z" />
      <path
         id="path4649"
         style="fill:#ffffff;fill-opacity:0.25517;fill-rule:evenodd"
         d="m -410.56,37.465 c -2.3,-0.725 -4.03,-4.315 -6.3,-3.558 -0.91,0.304 0.48,1.425 0.72,2.031 0.28,0.701 0.49,1.678 1.03,2.322 0.58,0.689 1.77,1.469 2.69,2.013 1.11,0.662 2.66,1.6 4.13,1.933 1.43,0.322 3.55,0.235 5.07,0.182 2.65,-0.094 6.19,-0.437 8.72,-0.934 2.45,-0.485 6.13,-1.07 7.72,-2.287 1.48,-1.126 2.04,-4.885 1.7,-4.649 -3.54,2.444 -6.69,3.533 -9.41,3.531 0,0 -2.84,-0.012 -4.06,-0.003 -2.01,0.014 -4.7,0.215 -6.7,0.103 -1.62,-0.091 -3.87,-0.231 -5.31,-0.684 z" />
      <g
         id="g4742"
         style="fill:#ffffff;fill-opacity:0.24483"
         transform="matrix(1,0,0,1.0588,0,0.6282)">
        <path
           id="path4660"
           style="fill:#ffffff;fill-opacity:0.24483;fill-rule:evenodd"
           d="m -430.24,55.667 c 0.64,1.9 -0.38,2.497 -3.21,1.668 -1.49,-0.649 -1.01,-1.484 -0.9,-2.678 0.29,-0.871 0.97,-0.907 2.07,-0.898 0.77,0.559 1.42,1.249 2.04,1.908 z" />
        <path
           id="path4662"
           style="fill:#ffffff;fill-opacity:0.24483;fill-rule:evenodd"
           d="m -424.97,63.991 c 0.64,1.899 -0.38,2.497 -3.21,1.668 -1.49,-0.649 -1.01,-1.485 -0.91,-2.678 0.3,-0.872 0.98,-0.908 2.07,-0.899 0.78,0.559 1.43,1.249 2.05,1.909 z" />
        <path
           id="path4664"
           style="fill:#ffffff;fill-opacity:0.24483;fill-rule:evenodd"
           d="m -418.4,57.118 c 0.64,1.899 -0.38,2.497 -3.21,1.668 -1.49,-0.649 -1.01,-1.485 -0.9,-2.678 0.29,-0.871 0.97,-0.908 2.07,-0.899 0.77,0.559 1.42,1.249 2.04,1.909 z" />
        <path
           id="path4666"
           style="fill:#ffffff;fill-opacity:0.24483;fill-rule:evenodd"
           d="m -412.42,73.254 c 0.64,1.9 -0.38,2.497 -3.21,1.668 -1.49,-0.649 -1.01,-1.484 -0.91,-2.678 0.3,-0.871 0.98,-0.908 2.07,-0.898 0.78,0.558 1.43,1.249 2.05,1.908 z" />
        <path
           id="path4668"
           style="fill:#ffffff;fill-opacity:0.24483;fill-rule:evenodd"
           d="m -410.33,63.393 c 0.64,1.9 -0.38,2.497 -3.21,1.668 -1.49,-0.649 -1.01,-1.485 -0.9,-2.678 0.29,-0.871 0.97,-0.908 2.07,-0.898 0.77,0.558 1.42,1.248 2.04,1.908 z" />
        <path
           id="path4670"
           style="fill:#ffffff;fill-opacity:0.24483;fill-rule:evenodd"
           d="m -421.98,72.656 c 0.64,1.9 -0.39,2.497 -3.22,1.668 -1.48,-0.649 -1.01,-1.484 -0.9,-2.677 0.3,-0.872 0.98,-0.908 2.07,-0.899 0.78,0.559 1.42,1.249 2.05,1.908 z" />
        <path
           id="path4672"
           style="fill:#ffffff;fill-opacity:0.24483;fill-rule:evenodd"
           d="m -404.65,54.13 c 0.64,1.899 -0.38,2.496 -3.21,1.668 -1.49,-0.65 -1.02,-1.485 -0.91,-2.678 0.3,-0.872 0.98,-0.908 2.07,-0.899 0.78,0.559 1.43,1.249 2.05,1.909 z" />
        <path
           id="path4674"
           style="fill:#ffffff;fill-opacity:0.24483;fill-rule:evenodd"
           d="m -417.5,83.414 c 0.64,1.9 -0.38,2.497 -3.21,1.668 -1.49,-0.649 -1.01,-1.485 -0.91,-2.678 0.3,-0.871 0.98,-0.908 2.07,-0.898 0.78,0.558 1.43,1.249 2.05,1.908 z" />
        <path
           id="path4676"
           style="fill:#ffffff;fill-opacity:0.24483;fill-rule:evenodd"
           d="m -401.06,71.76 c 0.63,1.9 -0.39,2.497 -3.22,1.668 -1.48,-0.649 -1.01,-1.485 -0.9,-2.678 0.29,-0.871 0.98,-0.908 2.07,-0.898 0.77,0.558 1.42,1.248 2.05,1.908 z" />
        <path
           id="path4678"
           style="fill:#ffffff;fill-opacity:0.24483;fill-rule:evenodd"
           d="m -404.05,81.621 c 0.63,1.9 -0.39,2.497 -3.22,1.668 -1.48,-0.649 -1.01,-1.484 -0.9,-2.678 0.29,-0.871 0.98,-0.908 2.07,-0.898 0.77,0.558 1.42,1.249 2.05,1.908 z" />
        <path
           id="path4680"
           style="fill:#ffffff;fill-opacity:0.24483;fill-rule:evenodd"
           d="m -399.57,95.367 c 0.64,1.9 -0.38,2.497 -3.21,1.668 -1.49,-0.649 -1.02,-1.485 -0.91,-2.678 0.3,-0.871 0.98,-0.908 2.07,-0.898 0.78,0.558 1.43,1.248 2.05,1.908 z" />
        <path
           id="path4682"
           style="fill:#ffffff;fill-opacity:0.24483;fill-rule:evenodd"
           d="m -389.41,95.068 c 0.64,1.9 -0.38,2.497 -3.21,1.668 -1.49,-0.649 -1.02,-1.485 -0.91,-2.678 0.3,-0.871 0.98,-0.908 2.07,-0.898 0.78,0.558 1.43,1.249 2.05,1.908 z" />
        <path
           id="path4684"
           style="fill:#ffffff;fill-opacity:0.24483;fill-rule:evenodd"
           d="m -377.46,91.781 c 0.64,1.9 -0.38,2.497 -3.21,1.668 -1.49,-0.649 -1.01,-1.485 -0.9,-2.678 0.29,-0.871 0.97,-0.908 2.07,-0.898 0.77,0.558 1.42,1.249 2.04,1.908 z" />
        <path
           id="path4686"
           style="fill:#ffffff;fill-opacity:0.24483;fill-rule:evenodd"
           d="m -367.89,87 c 0.63,1.9 -0.39,2.497 -3.22,1.668 -1.49,-0.649 -1.01,-1.485 -0.9,-2.678 0.29,-0.871 0.98,-0.908 2.07,-0.898 0.77,0.558 1.42,1.248 2.05,1.908 z" />
        <path
           id="path4688"
           style="fill:#ffffff;fill-opacity:0.24483;fill-rule:evenodd"
           d="m -362.81,77.736 c 0.63,1.9 -0.39,2.497 -3.22,1.668 -1.49,-0.649 -1.01,-1.484 -0.9,-2.678 0.29,-0.871 0.98,-0.907 2.07,-0.898 0.77,0.559 1.42,1.249 2.05,1.908 z" />
        <path
           id="path4690"
           style="fill:#ffffff;fill-opacity:0.24483;fill-rule:evenodd"
           d="m -373.27,79.529 c 0.63,1.9 -0.39,2.497 -3.22,1.668 -1.48,-0.649 -1.01,-1.484 -0.9,-2.678 0.29,-0.871 0.98,-0.907 2.07,-0.898 0.77,0.559 1.42,1.249 2.05,1.908 z" />
        <path
           id="path4692"
           style="fill:#ffffff;fill-opacity:0.24483;fill-rule:evenodd"
           d="m -385.82,85.207 c 0.63,1.9 -0.39,2.497 -3.22,1.668 -1.48,-0.649 -1.01,-1.485 -0.9,-2.678 0.29,-0.871 0.98,-0.908 2.07,-0.898 0.77,0.558 1.42,1.248 2.05,1.908 z" />
        <path
           id="path4694"
           style="fill:#ffffff;fill-opacity:0.24483;fill-rule:evenodd"
           d="m -397.78,87.598 c 0.64,1.899 -0.38,2.496 -3.21,1.668 -1.49,-0.65 -1.01,-1.485 -0.9,-2.678 0.29,-0.872 0.97,-0.908 2.07,-0.899 0.77,0.559 1.42,1.249 2.04,1.909 z" />
        <path
           id="path4696"
           style="fill:#ffffff;fill-opacity:0.24483;fill-rule:evenodd"
           d="m -410.63,89.689 c 0.64,1.9 -0.38,2.497 -3.21,1.668 -1.49,-0.649 -1.01,-1.484 -0.9,-2.678 0.29,-0.871 0.97,-0.907 2.07,-0.898 0.77,0.559 1.42,1.249 2.04,1.908 z" />
        <path
           id="path4698"
           style="fill:#ffffff;fill-opacity:0.24483;fill-rule:evenodd"
           d="m -429.75,84.012 c 0.64,1.899 -0.39,2.497 -3.21,1.668 -1.49,-0.649 -1.02,-1.485 -0.91,-2.678 0.3,-0.872 0.98,-0.908 2.07,-0.899 0.78,0.559 1.43,1.249 2.05,1.909 z" />
        <path
           id="path4700"
           style="fill:#ffffff;fill-opacity:0.24483;fill-rule:evenodd"
           d="m -436.32,72.358 c 0.63,1.899 -0.39,2.497 -3.22,1.668 -1.49,-0.649 -1.01,-1.485 -0.9,-2.678 0.29,-0.872 0.98,-0.908 2.07,-0.899 0.77,0.559 1.42,1.249 2.05,1.909 z" />
        <path
           id="path4702"
           style="fill:#ffffff;fill-opacity:0.24483;fill-rule:evenodd"
           d="m -439.01,60.704 c 0.63,1.899 -0.39,2.496 -3.22,1.668 -1.49,-0.649 -1.01,-1.485 -0.9,-2.678 0.29,-0.872 0.98,-0.908 2.07,-0.899 0.77,0.559 1.42,1.249 2.05,1.909 z" />
        <path
           id="path4704"
           style="fill:#ffffff;fill-opacity:0.24483;fill-rule:evenodd"
           d="m -435.73,48.452 c 0.64,1.9 -0.38,2.497 -3.21,1.668 -1.49,-0.649 -1.01,-1.485 -0.9,-2.678 0.29,-0.871 0.97,-0.908 2.07,-0.898 0.77,0.558 1.42,1.248 2.04,1.908 z" />
        <path
           id="path4706"
           style="fill:#ffffff;fill-opacity:0.24483;fill-rule:evenodd"
           d="m -429.15,34.706 c 0.63,1.9 -0.39,2.497 -3.22,1.668 -1.48,-0.649 -1.01,-1.484 -0.9,-2.678 0.29,-0.871 0.98,-0.908 2.07,-0.898 0.77,0.558 1.42,1.249 2.05,1.908 z" />
        <path
           id="path4708"
           style="fill:#ffffff;fill-opacity:0.24483;fill-rule:evenodd"
           d="m -419.89,33.511 c 0.64,1.9 -0.38,2.497 -3.21,1.668 -1.49,-0.649 -1.01,-1.485 -0.91,-2.678 0.3,-0.871 0.98,-0.908 2.07,-0.898 0.78,0.558 1.43,1.248 2.05,1.908 z" />
        <path
           id="path4710"
           style="fill:#ffffff;fill-opacity:0.24483;fill-rule:evenodd"
           d="m -425.27,46.958 c 0.64,1.9 -0.38,2.497 -3.21,1.668 -1.49,-0.649 -1.01,-1.485 -0.91,-2.678 0.3,-0.871 0.98,-0.908 2.07,-0.898 0.78,0.558 1.43,1.248 2.05,1.908 z" />
        <path
           id="path4712"
           style="fill:#ffffff;fill-opacity:0.24483;fill-rule:evenodd"
           d="m -412.72,49.348 c 0.64,1.9 -0.38,2.497 -3.21,1.668 -1.49,-0.649 -1.01,-1.484 -0.91,-2.678 0.3,-0.871 0.98,-0.907 2.07,-0.898 0.78,0.559 1.43,1.249 2.05,1.908 z" />
        <path
           id="path4714"
           style="fill:#ffffff;fill-opacity:0.24483;fill-rule:evenodd"
           d="m -392.4,51.739 c 0.64,1.9 -0.38,2.497 -3.21,1.668 -1.49,-0.649 -1.01,-1.485 -0.91,-2.678 0.3,-0.871 0.98,-0.908 2.07,-0.898 0.78,0.558 1.43,1.248 2.05,1.908 z" />
        <path
           id="path4716"
           style="fill:#ffffff;fill-opacity:0.24483;fill-rule:evenodd"
           d="m -395.68,63.393 c 0.63,1.9 -0.39,2.497 -3.22,1.668 -1.49,-0.649 -1.01,-1.485 -0.9,-2.678 0.29,-0.871 0.98,-0.908 2.07,-0.898 0.77,0.558 1.42,1.248 2.05,1.908 z" />
        <path
           id="path4718"
           style="fill:#ffffff;fill-opacity:0.24483;fill-rule:evenodd"
           d="m -390.9,74.151 c 0.63,1.899 -0.39,2.496 -3.22,1.668 -1.48,-0.65 -1.01,-1.485 -0.9,-2.678 0.29,-0.872 0.98,-0.908 2.07,-0.899 0.77,0.559 1.42,1.249 2.05,1.909 z" />
        <path
           id="path4720"
           style="fill:#ffffff;fill-opacity:0.24483;fill-rule:evenodd"
           d="m -379.85,71.76 c 0.64,1.9 -0.38,2.497 -3.21,1.668 -1.49,-0.649 -1.01,-1.485 -0.91,-2.678 0.3,-0.871 0.98,-0.908 2.07,-0.898 0.78,0.558 1.43,1.248 2.05,1.908 z" />
        <path
           id="path4722"
           style="fill:#ffffff;fill-opacity:0.24483;fill-rule:evenodd"
           d="m -384.03,58.313 c 0.64,1.9 -0.39,2.497 -3.22,1.668 -1.48,-0.649 -1.01,-1.485 -0.9,-2.678 0.3,-0.871 0.98,-0.908 2.07,-0.898 0.78,0.558 1.43,1.249 2.05,1.908 z" />
        <path
           id="path4724"
           style="fill:#ffffff;fill-opacity:0.24483;fill-rule:evenodd"
           d="m -373.57,61.899 c 0.63,1.9 -0.39,2.497 -3.22,1.668 -1.48,-0.649 -1.01,-1.485 -0.9,-2.678 0.29,-0.871 0.98,-0.908 2.07,-0.898 0.77,0.558 1.42,1.248 2.05,1.908 z" />
        <path
           id="path4726"
           style="fill:#ffffff;fill-opacity:0.24483;fill-rule:evenodd"
           d="m -362.52,63.991 c 0.64,1.899 -0.38,2.497 -3.21,1.668 -1.49,-0.649 -1.01,-1.485 -0.9,-2.678 0.29,-0.872 0.97,-0.908 2.07,-0.899 0.77,0.559 1.42,1.249 2.04,1.909 z" />
        <path
           id="path4728"
           style="fill:#ffffff;fill-opacity:0.24483;fill-rule:evenodd"
           d="m -386.12,45.165 c 0.63,1.9 -0.39,2.497 -3.22,1.668 -1.48,-0.649 -1.01,-1.485 -0.9,-2.678 0.29,-0.871 0.98,-0.908 2.07,-0.898 0.77,0.558 1.42,1.248 2.05,1.908 z" />
        <path
           id="path4730"
           style="fill:#ffffff;fill-opacity:0.24483;fill-rule:evenodd"
           d="m -378.95,41.28 c 0.64,1.9 -0.39,2.497 -3.22,1.668 -1.48,-0.649 -1.01,-1.484 -0.9,-2.678 0.3,-0.871 0.98,-0.907 2.07,-0.898 0.78,0.558 1.43,1.249 2.05,1.908 z" />
        <path
           id="path4732"
           style="fill:#ffffff;fill-opacity:0.24483;fill-rule:evenodd"
           d="m -378.35,31.718 c 0.63,1.9 -0.39,2.497 -3.22,1.668 -1.48,-0.649 -1.01,-1.485 -0.9,-2.678 0.29,-0.871 0.98,-0.908 2.07,-0.898 0.77,0.558 1.42,1.248 2.05,1.908 z" />
        <path
           id="path4734"
           style="fill:#ffffff;fill-opacity:0.24483;fill-rule:evenodd"
           d="m -392.4,28.431 c 0.64,1.9 -0.38,2.497 -3.21,1.668 -1.49,-0.649 -1.01,-1.485 -0.91,-2.678 0.3,-0.871 0.98,-0.908 2.07,-0.898 0.78,0.558 1.43,1.248 2.05,1.908 z" />
        <path
           id="path4736"
           style="fill:#ffffff;fill-opacity:0.24483;fill-rule:evenodd"
           d="m -364.61,55.026 c 0.64,1.9 -0.38,2.497 -3.21,1.668 -1.49,-0.649 -1.01,-1.485 -0.91,-2.678 0.3,-0.871 0.98,-0.908 2.07,-0.898 0.78,0.558 1.43,1.248 2.05,1.908 z" />
        <path
           id="path4738"
           style="fill:#ffffff;fill-opacity:0.24483;fill-rule:evenodd"
           d="m -373.27,52.635 c 0.63,1.9 -0.39,2.497 -3.22,1.668 -1.48,-0.649 -1.01,-1.484 -0.9,-2.678 0.29,-0.871 0.98,-0.907 2.07,-0.898 0.77,0.559 1.42,1.249 2.05,1.908 z" />
        <path
           id="path4740"
           style="fill:#ffffff;fill-opacity:0.24483;fill-rule:evenodd"
           d="m -420.79,94.769 c 0.64,1.9 -0.38,2.497 -3.21,1.668 -1.49,-0.649 -1.01,-1.484 -0.9,-2.678 0.29,-0.871 0.97,-0.907 2.07,-0.898 0.77,0.558 1.42,1.249 2.04,1.908 z" />
      </g>
    </g>
  </g>
  <metadata
     id="metadata54">
    <rdf:RDF>
      <cc:Work>
        <dc:format>image/svg+xml</dc:format>
        <dc:type
           rdf:resource="http://purl.org/dc/dcmitype/StillImage" />
        <cc:license
           rdf:resource="http://creativecommons.org/publicdomain/zero/1.0/" />
        <dc:publisher>
          <cc:Agent
             rdf:about="http://openclipart.org/">
            <dc:title>Openclipart</dc:title>
          </cc:Agent>
        </dc:publisher>
        <dc:date>2008-11-06T22:28:49</dc:date>
        <dc:description>Fruit series. An orange picture in cartoon style.</dc:description>
        <dc:source>https://openclipart.org/detail/20001/orange-by-matou</dc:source>
        <dc:creator>
          <cc:Agent>
            <dc:title>matou</dc:title>
          </cc:Agent>
        </dc:creator>
        <dc:subject>
          <rdf:Bag>
            <rdf:li>cartoon</rdf:li>
            <rdf:li>fruit</rdf:li>
            <rdf:li>orange</rdf:li>
          </rdf:Bag>
        </dc:subject>
      </cc:Work>
      <cc:License
         rdf:about="http://creativecommons.org/licenses/publicdomain/">
        <cc:permits
           rdf:resource="http://creativecommons.org/ns#Reproduction" />
        <cc:permits
           rdf:resource="http://creativecommons.org/ns#Distribution" />
        <cc:permits
           rdf:resource="http://creativecommons.org/ns#DerivativeWorks" />
      </cc:License>
    </rdf:RDF>
  </metadata>
</svg>
