<?xml version="1.0" encoding="UTF-8" standalone="no"?>
<!-- Created with Inkscape (http://www.inkscape.org/) -->

<svg
   width="50mm"
   height="50mm"
   viewBox="0 0 50 50"
   version="1.1"
   id="svg5"
   inkscape:version="1.4.4 (1:1.4.4+202605061432+dcaf3e7d9e)"
   sodipodi:docname="0.svg"
   xmlns:inkscape="http://www.inkscape.org/namespaces/inkscape"
   xmlns:sodipodi="http://sodipodi.sourceforge.net/DTD/sodipodi-0.dtd"
   xmlns="http://www.w3.org/2000/svg"
   xmlns:svg="http://www.w3.org/2000/svg">
  <sodipodi:namedview
     id="namedview7"
     pagecolor="#ffffff"
     bordercolor="#666666"
     borderopacity="1.0"
     inkscape:pageshadow="2"
     inkscape:pageopacity="0.0"
     inkscape:pagecheckerboard="0"
     inkscape:document-units="mm"
     showgrid="false"
     inkscape:zoom="0.43024095"
     inkscape:cx="-108.07897"
     inkscape:cy="424.18092"
     inkscape:window-width="1850"
     inkscape:window-height="1016"
     inkscape:window-x="70"
     inkscape:window-y="27"
     inkscape:window-maximized="1"
     inkscape:current-layer="layer1"
     inkscape:showpageshadow="2"
     inkscape:deskcolor="#d1d1d1" />
  <defs
     id="defs2" />
  <g
     inkscape:label="Camada 1"
     inkscape:groupmode="layer"
     id="layer1">
    <path
       d="m 4.6362207,27.132817 c 0,5.784827 1.9867084,10.108839 4.7914731,13.906958 3.7396862,5.142069 9.4660812,7.888401 15.4846382,7.888401 12.212413,0 20.45141,-9.991974 20.45141,-19.165892 0,-11.394357 -8.99862,-20.5098421 -17.997241,-25.9440738 -3.038495,-1.8114105 -5.784827,-2.7463321 -8.180563,-2.7463321 -3.856552,0 -6.895047,2.337304 -9.349216,7.2456422 C 7.207255,13.459589 5.5127097,19.302849 4.9868163,22.633507 4.7530859,24.211187 4.6362207,25.730435 4.6362207,27.132817 Z M 14.394465,16.907112 c 1.168652,-4.090282 3.798118,-6.252288 6.953479,-6.252288 6.427586,0 16.185829,10.693166 16.185829,19.10746 0,5.667962 -4.791473,11.511222 -12.796739,11.511222 -5.142068,0 -9.524513,-3.447524 -11.043761,-9.290783 -0.525893,-1.928276 -1.110219,-3.739687 -1.110219,-5.960125 0.05843,-2.980063 0.993354,-6.076991 1.811411,-9.115486 z"
       id="text1"
       style="font-size:58.4326px;line-height:1.25;font-family:'Because We Learn';-inkscape-font-specification:'Because We Learn, Normal';font-variant-ligatures:none;text-align:center;letter-spacing:0px;word-spacing:0px;text-anchor:middle;stroke-width:0.702251"
       aria-label="0" />
  </g>
</svg>
