<?xml version="1.0" encoding="UTF-8" standalone="no"?>
<!-- Created with Inkscape (http://www.inkscape.org/) -->

<svg
   width="50mm"
   height="50mm"
   viewBox="0 0 50 50"
   version="1.1"
   id="svg5"
   inkscape:version="1.4.4 (1:1.4.4+202605061432+dcaf3e7d9e)"
   sodipodi:docname="1.svg"
   xmlns:inkscape="http://www.inkscape.org/namespaces/inkscape"
   xmlns:sodipodi="http://sodipodi.sourceforge.net/DTD/sodipodi-0.dtd"
   xmlns="http://www.w3.org/2000/svg"
   xmlns:svg="http://www.w3.org/2000/svg">
  <sodipodi:namedview
     id="namedview7"
     pagecolor="#ffffff"
     bordercolor="#666666"
     borderopacity="1.0"
     inkscape:pageshadow="2"
     inkscape:pageopacity="0.0"
     inkscape:pagecheckerboard="0"
     inkscape:document-units="mm"
     showgrid="false"
     inkscape:zoom="0.43024095"
     inkscape:cx="-108.07897"
     inkscape:cy="424.18092"
     inkscape:window-width="1850"
     inkscape:window-height="1016"
     inkscape:window-x="70"
     inkscape:window-y="27"
     inkscape:window-maximized="1"
     inkscape:current-layer="layer1"
     inkscape:showpageshadow="2"
     inkscape:deskcolor="#d1d1d1" />
  <defs
     id="defs2" />
  <g
     inkscape:label="Camada 1"
     inkscape:groupmode="layer"
     id="layer1">
    <path
       d="m 29.79143,28.301462 c 0,-4.090282 0.05843,-7.362507 0.05843,-10.751598 v -2.512602 c 0,-6.0185573 -0.292163,-12.6798735 -5.258934,-12.6798735 -4.674608,0 -11.803385,8.0052655 -16.5948579,12.6214415 -0.7596237,0.759624 -1.5776801,1.81141 -1.5776801,2.687899 0,2.337304 0.1752978,4.733041 2.5126017,4.733041 4.0318493,0 6.5444513,-4.733041 9.4076483,-7.245642 0.934922,-0.818057 2.337304,-1.285518 3.973417,-2.220439 -0.175298,10.284137 -0.292163,17.179184 -0.584326,27.288023 -2.980063,0 -5.84326,0.05843 -8.589592,0.05843 -1.57768,0 -3.1553605,-0.05843 -4.7330407,-0.05843 -2.0451409,0 -3.914984,0.642759 -3.914984,3.505956 0,3.505956 4.6161752,3.914984 7.8299677,3.914984 7.304075,0 14.783448,-0.584326 22.087522,-1.051787 4.26558,-0.292163 11.102194,-0.701191 11.102194,-4.849905 0,-2.804765 -2.103573,-3.564389 -3.973417,-3.564389 -3.564388,0 -7.304074,0.701191 -11.686519,1.227085 0,-3.973417 -0.05843,-7.537805 -0.05843,-11.102194 z"
       id="text1"
       style="font-size:58.4326px;line-height:1.25;font-family:'Because We Learn';-inkscape-font-specification:'Because We Learn, Normal';font-variant-ligatures:none;text-align:center;letter-spacing:0px;word-spacing:0px;text-anchor:middle;stroke-width:0.702251"
       aria-label="1" />
  </g>
</svg>
