<?xml version="1.0" encoding="UTF-8" standalone="no"?>
<!-- Created with Inkscape (http://www.inkscape.org/) -->

<svg
   width="50mm"
   height="50mm"
   viewBox="0 0 50 50"
   version="1.1"
   id="svg5"
   inkscape:version="1.4.4 (1:1.4.4+202605061432+dcaf3e7d9e)"
   sodipodi:docname="2.svg"
   xmlns:inkscape="http://www.inkscape.org/namespaces/inkscape"
   xmlns:sodipodi="http://sodipodi.sourceforge.net/DTD/sodipodi-0.dtd"
   xmlns="http://www.w3.org/2000/svg"
   xmlns:svg="http://www.w3.org/2000/svg">
  <sodipodi:namedview
     id="namedview7"
     pagecolor="#ffffff"
     bordercolor="#666666"
     borderopacity="1.0"
     inkscape:pageshadow="2"
     inkscape:pageopacity="0.0"
     inkscape:pagecheckerboard="0"
     inkscape:document-units="mm"
     showgrid="false"
     inkscape:zoom="0.43024095"
     inkscape:cx="-109.24111"
     inkscape:cy="424.18092"
     inkscape:window-width="1850"
     inkscape:window-height="1016"
     inkscape:window-x="70"
     inkscape:window-y="27"
     inkscape:window-maximized="1"
     inkscape:current-layer="layer1"
     inkscape:showpageshadow="2"
     inkscape:deskcolor="#d1d1d1" />
  <defs
     id="defs2" />
  <g
     inkscape:label="Camada 1"
     inkscape:groupmode="layer"
     id="layer1">
    <path
       d="m 27.833897,12.0572 c 0,1.81141 -4.090282,7.304075 -5.609529,10.167272 -3.272226,6.135423 -10.167272,14.491284 -10.167272,19.458055 0,3.564389 2.804764,5.317366 8.414294,5.317366 4.966771,0 9.991974,-0.876488 14.900312,-1.57768 2.220439,-0.525893 4.849906,-2.512601 4.849906,-4.96677 0,-1.869844 -1.869843,-3.038496 -3.505956,-3.038496 -1.34395,0 -2.746332,0.759624 -4.090282,0.876489 -3.505956,0.584326 -7.070344,1.051787 -11.861817,1.636113 1.694545,-2.980062 2.571034,-4.849906 3.505956,-6.661316 3.973416,-7.771536 10.926896,-16.536425 10.926896,-24.0742305 0,-4.0902819 -2.804765,-7.0119118 -6.719749,-7.0119118 -7.362508,0 -13.790093,5.4926643 -17.412914,11.3359243 -0.525894,0.818056 -0.759624,1.752978 -0.759624,2.571034 0,2.220439 1.519247,3.798119 3.564388,3.798119 1.460815,0 2.512602,-1.051787 3.330658,-2.454169 1.986709,-3.447523 6.719749,-5.960125 9.699812,-5.960125 0.759623,0 0.934921,0.175298 0.934921,0.584326 z"
       id="text1"
       style="font-size:58.4326px;line-height:1.25;font-family:'Because We Learn';-inkscape-font-specification:'Because We Learn, Normal';font-variant-ligatures:none;text-align:center;letter-spacing:0px;word-spacing:0px;text-anchor:middle;stroke-width:0.702251"
       aria-label="2" />
  </g>
</svg>
