<?xml version="1.0" encoding="UTF-8" standalone="no"?>
<!-- Created with Inkscape (http://www.inkscape.org/) -->

<svg
   width="50mm"
   height="50mm"
   viewBox="0 0 50 50"
   version="1.1"
   id="svg5"
   inkscape:version="1.4.4 (1:1.4.4+202605061432+dcaf3e7d9e)"
   sodipodi:docname="3.svg"
   xmlns:inkscape="http://www.inkscape.org/namespaces/inkscape"
   xmlns:sodipodi="http://sodipodi.sourceforge.net/DTD/sodipodi-0.dtd"
   xmlns="http://www.w3.org/2000/svg"
   xmlns:svg="http://www.w3.org/2000/svg">
  <sodipodi:namedview
     id="namedview7"
     pagecolor="#ffffff"
     bordercolor="#666666"
     borderopacity="1.0"
     inkscape:pageshadow="2"
     inkscape:pageopacity="0.0"
     inkscape:pagecheckerboard="0"
     inkscape:document-units="mm"
     showgrid="false"
     inkscape:zoom="1.2169052"
     inkscape:cx="57.522969"
     inkscape:cy="242.8291"
     inkscape:window-width="1850"
     inkscape:window-height="1016"
     inkscape:window-x="70"
     inkscape:window-y="27"
     inkscape:window-maximized="1"
     inkscape:current-layer="layer1"
     inkscape:showpageshadow="2"
     inkscape:deskcolor="#d1d1d1" />
  <defs
     id="defs2" />
  <g
     inkscape:label="Camada 1"
     inkscape:groupmode="layer"
     id="layer1">
    <path
       d="m 20.097972,16.098893 c -1.651219,2.425229 -4.850456,3.921646 -4.850456,7.224085 0,1.651219 2.528429,2.734831 4.33445,2.734831 1.754421,0 3.612043,-0.567606 5.366463,-0.567606 3.302438,0 7.017682,2.63163 7.017682,7.069282 0,1.393216 -0.464406,2.734832 -1.496418,3.818445 -1.70282,1.806021 -5.676066,4.592453 -7.275684,4.592453 -2.012424,0 -2.992835,-2.064024 -5.521265,-2.064024 -2.218826,0 -2.58003,1.70282 -2.58003,3.302439 0,3.45724 3.870045,5.572865 7.533688,5.572865 9.081706,0 16.150988,-8.5657 16.150988,-15.42858 0,-4.902057 -2.786432,-9.649313 -8.101294,-12.435745 -0.928811,-0.464406 -1.960823,-0.928811 -2.941235,-1.444817 1.393217,-3.45724 3.612043,-6.86288 3.612043,-10.1653184 0,-3.6120421 -2.683232,-6.0888709 -6.86288,-6.0888709 -5.572865,0 -13.261355,4.0764475 -13.261355,8.7205013 0,2.167226 1.290015,4.128048 2.889634,4.128048 1.083612,0 2.012423,-0.825609 2.63163,-2.012423 1.444817,-2.838033 3.921646,-3.8184446 8.101295,-4.0764476 -1.909222,2.9412346 -3.147637,5.1084596 -4.747256,7.1208826 z"
       id="text1"
       style="font-size:51.6006px;line-height:1.25;font-family:'Because We Learn';-inkscape-font-specification:'Because We Learn, Normal';font-variant-ligatures:none;text-align:center;letter-spacing:0px;word-spacing:0px;text-anchor:middle;stroke-width:0.620142"
       aria-label="3" />
  </g>
</svg>
