<?xml version="1.0" encoding="UTF-8" standalone="no"?>
<!-- Created with Inkscape (http://www.inkscape.org/) -->

<svg
   width="50mm"
   height="50mm"
   viewBox="0 0 50 50"
   version="1.1"
   id="svg5"
   inkscape:version="1.4.4 (1:1.4.4+202605061432+dcaf3e7d9e)"
   sodipodi:docname="4.svg"
   xmlns:inkscape="http://www.inkscape.org/namespaces/inkscape"
   xmlns:sodipodi="http://sodipodi.sourceforge.net/DTD/sodipodi-0.dtd"
   xmlns="http://www.w3.org/2000/svg"
   xmlns:svg="http://www.w3.org/2000/svg">
  <sodipodi:namedview
     id="namedview7"
     pagecolor="#ffffff"
     bordercolor="#666666"
     borderopacity="1.0"
     inkscape:pageshadow="2"
     inkscape:pageopacity="0.0"
     inkscape:pagecheckerboard="0"
     inkscape:document-units="mm"
     showgrid="false"
     inkscape:zoom="0.43024095"
     inkscape:cx="-108.07897"
     inkscape:cy="424.18092"
     inkscape:window-width="1850"
     inkscape:window-height="1016"
     inkscape:window-x="70"
     inkscape:window-y="27"
     inkscape:window-maximized="1"
     inkscape:current-layer="layer1"
     inkscape:showpageshadow="2"
     inkscape:deskcolor="#d1d1d1" />
  <defs
     id="defs2" />
  <g
     inkscape:label="Camada 1"
     inkscape:groupmode="layer"
     id="layer1">
    <path
       d="m 36.598856,38.760858 c 0,0.05843 0,0.175297 0.05843,0.116865 0,0 0.05843,0.292163 0.05843,2.395736 0,3.856552 0.350596,7.596238 4.090282,7.596238 3.914984,0 3.914984,-3.856551 3.914984,-7.070344 v -0.525894 c 0,-2.980062 -0.701191,-3.564388 -0.701191,-6.544451 0,-2.337304 -0.759624,-11.219058 -0.759624,-13.556362 0,-7.362508 0.116865,-7.654671 0.116865,-15.2509085 0,-2.5710343 -1.460815,-4.791473 -4.324012,-4.791473 -2.337304,0 -3.505956,1.6945453 -3.798119,3.8565515 -0.23373,4.7330404 -0.409028,9.641379 -0.409028,14.315987 0,1.519247 0.05843,3.096927 0.05843,4.73304 -1.869844,0.175298 -3.681254,0.292163 -5.434232,0.292163 -4.031849,0 -7.946833,-0.467461 -12.329278,-1.285517 4.382445,-3.330658 8.063698,-5.667962 11.160626,-8.589592 1.986708,-1.869843 4.674608,-5.6679622 4.674608,-8.0636987 0,-1.8114105 -1.811411,-3.7396863 -4.49931,-3.7396863 -1.57768,0 -2.804765,1.0517868 -3.038495,2.8047648 -0.409028,2.9216299 -2.571035,4.2655796 -4.733041,5.6679622 -3.739686,2.454169 -7.596237,4.791473 -11.452789,7.070344 -2.1035735,1.227085 -3.9734166,2.629467 -3.9734166,5.200501 0,3.447524 2.5126017,5.200502 5.2589336,5.901693 3.856552,0.993354 7.946834,1.752978 11.978683,2.220439 4.265579,0.46746 8.589592,0.525893 13.205767,0.759623 0.350596,2.395737 0.701191,4.440878 0.876489,6.486019 z"
       id="text1"
       style="font-size:58.4326px;line-height:1.25;font-family:'Because We Learn';-inkscape-font-specification:'Because We Learn, Normal';font-variant-ligatures:none;text-align:center;letter-spacing:0px;word-spacing:0px;text-anchor:middle;stroke-width:0.702251"
       aria-label="4" />
  </g>
</svg>
