<?xml version="1.0" encoding="UTF-8" standalone="no"?>
<!-- Created with Inkscape (http://www.inkscape.org/) -->

<svg
   width="50mm"
   height="50mm"
   viewBox="0 0 50 50"
   version="1.1"
   id="svg5"
   inkscape:version="1.4.4 (1:1.4.4+202605061432+dcaf3e7d9e)"
   sodipodi:docname="5.svg"
   xmlns:inkscape="http://www.inkscape.org/namespaces/inkscape"
   xmlns:sodipodi="http://sodipodi.sourceforge.net/DTD/sodipodi-0.dtd"
   xmlns="http://www.w3.org/2000/svg"
   xmlns:svg="http://www.w3.org/2000/svg">
  <sodipodi:namedview
     id="namedview7"
     pagecolor="#ffffff"
     bordercolor="#666666"
     borderopacity="1.0"
     inkscape:pageshadow="2"
     inkscape:pageopacity="0.0"
     inkscape:pagecheckerboard="0"
     inkscape:document-units="mm"
     showgrid="false"
     inkscape:zoom="0.43024095"
     inkscape:cx="-108.07897"
     inkscape:cy="424.18092"
     inkscape:window-width="1850"
     inkscape:window-height="1016"
     inkscape:window-x="70"
     inkscape:window-y="27"
     inkscape:window-maximized="1"
     inkscape:current-layer="layer1"
     inkscape:showpageshadow="2"
     inkscape:deskcolor="#d1d1d1" />
  <defs
     id="defs2" />
  <g
     inkscape:label="Camada 1"
     inkscape:groupmode="layer"
     id="layer1">
    <path
       d="m 21.786225,13.60565 c 0,-3.038495 1.694545,-3.272226 3.505956,-3.389091 4.849905,-0.4090282 12.329278,0.292163 12.329278,-4.2655797 0,-2.2788713 -1.227085,-3.7981189 -3.447524,-3.7981189 -0.23373,0 -0.46746,0 -0.701191,0.058433 -6.544451,0.8180564 -13.147334,1.6361128 -19.691785,2.9800625 -1.636113,0.3505956 -2.92163,1.6945454 -2.92163,3.0969277 0,0.6427586 0.23373,1.2855172 0.818056,1.8114108 1.57768,1.402382 2.045141,2.804764 2.045141,4.207147 0,3.622821 -2.629467,7.187209 -2.629467,10.751598 0,1.460815 1.460815,3.798119 3.914984,3.798119 3.856552,0 5.84326,-7.070345 10.576301,-7.070345 3.914984,0 7.187209,5.375799 7.187209,8.940188 0,5.025203 -9.349216,8.706457 -15.250908,9.173918 -1.110219,-0.05843 -1.986708,-4.148715 -4.148715,-4.148715 -2.278871,0 -4.0318488,3.330658 -4.0318488,5.434232 0,3.856551 2.9800628,6.661316 7.2456418,6.661316 0.350596,0 0.701192,0 1.11022,-0.05843 9.641378,-1.11022 22.964011,-6.95348 22.964011,-17.062319 0,-1.519248 -0.292163,-3.15536 -0.934922,-4.849906 C 36.686537,18.163392 31.427603,13.60565 22.604281,13.60565 Z"
       id="text1"
       style="font-size:58.4326px;line-height:1.25;font-family:'Because We Learn';-inkscape-font-specification:'Because We Learn, Normal';font-variant-ligatures:none;text-align:center;letter-spacing:0px;word-spacing:0px;text-anchor:middle;stroke-width:0.702251"
       aria-label="5" />
  </g>
</svg>
