<?xml version="1.0" encoding="UTF-8" standalone="no"?>
<!-- Created with Inkscape (http://www.inkscape.org/) -->

<svg
   width="50mm"
   height="50mm"
   viewBox="0 0 50 50"
   version="1.1"
   id="svg5"
   inkscape:version="1.4.4 (1:1.4.4+202605061432+dcaf3e7d9e)"
   sodipodi:docname="7.svg"
   xmlns:inkscape="http://www.inkscape.org/namespaces/inkscape"
   xmlns:sodipodi="http://sodipodi.sourceforge.net/DTD/sodipodi-0.dtd"
   xmlns="http://www.w3.org/2000/svg"
   xmlns:svg="http://www.w3.org/2000/svg">
  <sodipodi:namedview
     id="namedview7"
     pagecolor="#ffffff"
     bordercolor="#666666"
     borderopacity="1.0"
     inkscape:pageshadow="2"
     inkscape:pageopacity="0.0"
     inkscape:pagecheckerboard="0"
     inkscape:document-units="mm"
     showgrid="false"
     inkscape:zoom="1.7209638"
     inkscape:cx="78.444416"
     inkscape:cy="131.6123"
     inkscape:window-width="1850"
     inkscape:window-height="1016"
     inkscape:window-x="70"
     inkscape:window-y="27"
     inkscape:window-maximized="1"
     inkscape:current-layer="layer1"
     inkscape:showpageshadow="2"
     inkscape:deskcolor="#d1d1d1" />
  <defs
     id="defs2" />
  <g
     inkscape:label="Camada 1"
     inkscape:groupmode="layer"
     id="layer1">
    <path
       d="m 23.003202,5.8040899 c -1.490947,0 -3.354631,0.3194886 -5.431307,1.0117139 C 12.726318,8.4664949 7.8807411,10.117186 3.0884121,11.608133 1.3312248,12.193862 2.2269237e-5,13.09908 2.2269237e-5,14.909515 c 0,2.449413 1.650691130763,3.407878 3.514374630763,3.407878 2.1831721,0 4.4195923,-0.692225 6.4962681,-1.38445 4.046856,-1.277955 7.987215,-2.715653 12.247063,-4.2066 1.331203,2.502661 1.757187,4.845577 1.757187,7.135245 0,1.331203 -0.159744,2.662405 -0.319488,3.993608 -3.780615,1.11821 -7.29499,1.97018 -10.862613,3.194886 -1.703939,0.585729 -3.2481337,1.863683 -3.2481337,3.620871 0,2.342916 1.7039397,3.248134 2.9286457,3.248134 2.449412,0 5.644298,-2.342917 9.211921,-2.342917 0.958466,0 2.023428,0.159745 3.08839,0.425985 0,1.97018 -0.05325,3.94036 -0.05325,5.857291 v 0.372737 c 0,2.449413 0,5.963787 2.555909,5.963787 2.609157,0 4.526088,-2.928645 4.526088,-5.271562 0,-3.035141 -0.106496,-5.697546 -0.106496,-8.839184 2.768901,-0.319489 4.685833,-0.585729 6.602764,-0.905218 4.419593,-0.638977 11.661334,-1.011714 11.661334,-5.165066 0,-2.609157 -1.650691,-3.301382 -2.981893,-3.301382 -0.745474,0 -1.544195,0.319489 -2.289668,0.319489 -4.2066,0.798721 -8.519697,1.224706 -13.152281,1.916931 C 30.031951,11.075652 29.392974,5.8040899 23.003202,5.8040899 Z"
       id="text1"
       style="font-size:53.2481px;line-height:1.25;font-family:'Because We Learn';-inkscape-font-specification:'Because We Learn, Normal';font-variant-ligatures:none;text-align:center;letter-spacing:0px;word-spacing:0px;text-anchor:middle;stroke-width:0.639944"
       aria-label="7" />
  </g>
</svg>
