<?xml version="1.0" encoding="UTF-8" standalone="no"?>
<!-- Created with Inkscape (http://www.inkscape.org/) -->

<svg
   width="50mm"
   height="50mm"
   viewBox="0 0 50 50"
   version="1.1"
   id="svg5"
   inkscape:version="1.4.4 (1:1.4.4+202605061432+dcaf3e7d9e)"
   sodipodi:docname="9.svg"
   xmlns:inkscape="http://www.inkscape.org/namespaces/inkscape"
   xmlns:sodipodi="http://sodipodi.sourceforge.net/DTD/sodipodi-0.dtd"
   xmlns="http://www.w3.org/2000/svg"
   xmlns:svg="http://www.w3.org/2000/svg">
  <sodipodi:namedview
     id="namedview7"
     pagecolor="#ffffff"
     bordercolor="#666666"
     borderopacity="1.0"
     inkscape:pageshadow="2"
     inkscape:pageopacity="0.0"
     inkscape:pagecheckerboard="0"
     inkscape:document-units="mm"
     showgrid="false"
     inkscape:zoom="1.7209638"
     inkscape:cx="169.0913"
     inkscape:cy="95.585973"
     inkscape:window-width="1850"
     inkscape:window-height="1016"
     inkscape:window-x="70"
     inkscape:window-y="27"
     inkscape:window-maximized="1"
     inkscape:current-layer="layer1"
     inkscape:showpageshadow="2"
     inkscape:deskcolor="#d1d1d1" />
  <defs
     id="defs2" />
  <g
     inkscape:label="Camada 1"
     inkscape:groupmode="layer"
     id="layer1">
    <path
       d="m 31.807786,31.835017 v 5.391768 c 0,8.496118 0,11.763855 3.485587,11.763855 2.450803,0 3.594511,-1.742794 3.703436,-6.317626 0.272312,-9.857675 0.599085,-19.769812 0.599085,-29.68195 0,-6.4810124 -5.555153,-11.9817038 -12.199553,-11.9817038 -8.768429,0 -14.868205,10.2389108 -16.665461,18.3537928 -0.21785,0.980322 -0.326774,1.960642 -0.326774,2.886502 0,4.411445 3.648973,9.367514 9.204127,9.367514 3.975748,0 7.025636,-2.450803 12.254016,-5.555154 -0.05446,2.015105 -0.05446,3.921285 -0.05446,5.773002 z m 0.599086,-19.4975 c 0,4.356983 -5.119456,8.114882 -9.149665,10.565685 -0.980322,0.599085 -2.232955,1.252633 -3.267738,1.252633 -1.633868,0 -1.90618,-1.524944 -1.90618,-3.3222 0,-2.341879 5.609616,-12.5807901 9.912137,-12.6897147 1.361557,0 3.3222,0.2178492 4.03021,2.1784927 0.272311,0.653547 0.381236,1.361557 0.381236,2.015104 z"
       id="text1"
       style="font-size:57.3306px;line-height:1.25;font-family:'Because We Learn';-inkscape-font-specification:'Because We Learn, Normal';font-variant-ligatures:none;text-align:center;letter-spacing:0px;word-spacing:0px;text-anchor:middle;stroke-width:0.654535"
       aria-label="9" />
  </g>
</svg>
